<svg xmlns="http://www.w3.org/2000/svg" width="64" height="49" viewBox="0 0 64 49">
    <g fill="none" fill-rule="evenodd" transform="translate(1 1)">
        <rect width="61.935" height="39.677" stroke="#B2CFFE" stroke-linecap="round" stroke-width="1.8" rx="7.742"/>
        <g>
            <path stroke="#0060FE" stroke-width="1.161" d="M16.24 4.568c3.644 0 6.598 2.954 6.598 6.597 0 .809-.145 1.584-.411 2.3l-.001 3.07c0 .42-.315.768-.721.819l-.104.006h-3.085c-.71.261-1.476.403-2.275.403-1.947 0-3.697-.843-4.905-2.184 2.886-1.246 4.905-4.117 4.905-7.459 0-1.255-.285-2.443-.793-3.504.259-.032.524-.048.793-.048z" transform="translate(19.355 10.645)"/>
            <path stroke="#0060FE" stroke-width="1.161" d="M8.12 0C3.636 0 0 3.636 0 8.12c0 .996.18 1.95.507 2.83v3.78c0 .56.455 1.015 1.016 1.015H5.32c.872.32 1.815.496 2.8.496 4.484 0 8.12-3.636 8.12-8.12C16.24 3.635 12.605 0 8.12 0z" transform="translate(19.355 10.645)"/>
            <path fill="#0060FE" d="M5.329 7.613c.42 0 .761.34.761.761 0 .42-.34.761-.761.761-.42 0-.761-.34-.761-.76 0-.421.34-.762.76-.762zm2.538 0c.42 0 .76.34.76.761 0 .42-.34.761-.76.761s-.762-.34-.762-.76c0-.421.341-.762.762-.762zm2.537 0c.42 0 .761.34.761.761 0 .42-.34.761-.76.761-.421 0-.762-.34-.762-.76 0-.421.34-.762.761-.762z" transform="translate(19.355 10.645)"/>
        </g>
        <path stroke="#B2CFFE" stroke-linecap="round" stroke-width="1.8" d="M19 46.5L43 46.5"/>
    </g>
</svg>
